<?xml version="1.0" standalone="no"?>
<!DOCTYPE svg PUBLIC "-//W3C//DTD SVG 20010904//EN"
 "http://www.w3.org/TR/2001/REC-SVG-20010904/DTD/svg10.dtd">
<svg version="1.0" xmlns="http://www.w3.org/2000/svg"
 width="176.000000pt" height="176.000000pt" viewBox="0 0 176.000000 176.000000"
 preserveAspectRatio="xMidYMid meet">
<metadata>
Created by potrace 1.14, written by Peter Selinger 2001-2017
</metadata>
<g transform="translate(0.000000,176.000000) scale(0.100000,-0.100000)"
fill="#000000" stroke="none">
<path d="M836 1744 c-5 -13 -15 -15 -46 -10 -46 7 -47 4 -19 -44 31 -53 46
-60 120 -60 l67 0 31 48 c17 27 31 52 31 55 0 4 -18 4 -40 1 -31 -5 -41 -3
-46 10 -4 11 -19 16 -49 16 -30 0 -45 -5 -49 -16z"/>
<path d="M1062 1666 c-7 -16 -20 -26 -32 -26 -24 0 -26 -13 -5 -30 9 -8 13
-21 9 -36 -7 -26 5 -31 24 -12 9 9 18 9 37 0 25 -11 26 -11 23 12 -1 13 6 33
16 45 19 21 19 21 -7 21 -18 0 -31 8 -40 26 l-13 25 -12 -25z"/>
<path d="M681 1662 c-6 -12 -21 -22 -31 -22 -24 0 -26 -13 -5 -30 10 -8 13
-21 9 -37 -6 -24 -5 -24 16 -13 17 9 29 9 47 1 23 -10 24 -9 21 13 -1 13 6 33
16 45 19 21 19 21 -6 21 -15 0 -32 9 -40 22 l-15 22 -12 -22z"/>
<path d="M525 1607 c-4 -10 -19 -23 -33 -28 -23 -9 -24 -11 -8 -28 9 -10 14
-24 11 -32 -4 -11 4 -14 35 -14 35 0 40 3 40 22 0 12 5 25 10 28 16 10 11 25
-8 25 -11 0 -24 10 -29 23 -10 20 -11 21 -18 4z"/>
<path d="M813 1608 c2 -9 26 -13 72 -13 46 0 70 4 73 13 3 9 -16 12 -73 12
-57 0 -76 -3 -72 -12z"/>
<path d="M1228 1602 c-4 -14 -14 -22 -27 -22 -24 0 -27 -12 -7 -29 8 -7 12
-20 9 -29 -3 -14 3 -17 36 -17 36 0 41 2 41 22 0 12 5 25 10 28 17 10 11 25
-9 25 -10 0 -25 10 -33 22 l-15 22 -5 -22z"/>
<path d="M808 1531 c10 -6 7 -10 -12 -15 -17 -4 -23 -11 -20 -21 4 -8 1 -15
-5 -15 -6 0 -11 11 -11 25 0 14 -4 25 -8 25 -5 0 -7 -15 -5 -32 3 -27 2 -30
-7 -15 -14 22 -31 22 -23 0 4 -11 3 -14 -5 -9 -18 11 -14 34 6 39 12 3 11 5
-6 6 -27 1 -182 -58 -182 -70 0 -4 16 -1 35 7 40 16 48 17 40 5 -3 -5 0 -13 6
-17 9 -5 10 -1 7 14 -5 18 0 23 30 32 20 5 38 7 41 4 9 -9 -16 -39 -32 -38 -9
1 -18 -5 -21 -12 -7 -18 5 -17 88 5 86 24 248 22 316 -4 25 -9 56 -19 70 -21
74 -15 229 -140 299 -242 14 -19 16 -20 27 -4 13 16 13 16 14 0 0 -9 -5 -20
-10 -23 -8 -5 -7 -11 1 -21 6 -8 9 -14 5 -14 -4 0 0 -10 8 -22 8 -13 18 -39
21 -58 3 -19 11 -39 16 -45 7 -7 8 -1 4 17 -4 15 -8 39 -9 52 0 13 -5 22 -10
18 -5 -3 -7 2 -3 11 4 10 1 17 -5 17 -9 0 -9 3 0 12 7 7 12 19 12 27 0 12 -3
12 -12 3 -7 -7 -16 -12 -22 -12 -5 0 -2 6 8 13 16 12 17 17 6 36 -9 17 -15 20
-23 12 -6 -6 -16 -11 -21 -11 -6 0 -2 7 8 15 15 11 17 17 7 29 -7 8 -21 12
-33 9 -18 -5 -19 -4 -9 16 8 14 8 21 1 21 -5 0 -10 -4 -10 -10 0 -5 -5 -10
-11 -10 -8 0 -7 5 1 16 11 12 10 18 -3 31 -9 9 -20 13 -24 9 -4 -4 -1 -11 7
-16 8 -5 12 -12 8 -15 -3 -4 -18 4 -32 16 -18 16 -23 26 -16 34 16 19 -15 41
-35 25 -10 -9 -15 -9 -15 -1 0 6 4 11 10 11 5 0 6 8 3 17 -11 28 45 -17 115
-92 65 -69 144 -214 157 -288 6 -37 5 -37 -20 -31 -25 6 -26 5 -24 -39 2 -25
6 -44 9 -42 4 2 6 18 5 35 -2 25 2 30 22 30 20 0 23 -5 23 -39 0 -22 3 -46 6
-55 4 -11 1 -16 -10 -16 -9 0 -16 -4 -16 -10 0 -5 -4 -10 -9 -10 -6 0 -9 9 -8
20 1 12 7 18 13 16 8 -3 12 3 11 15 -1 10 -4 19 -8 19 -32 0 -50 -128 -19
-142 13 -6 13 -7 -2 -7 -11 -1 -21 -18 -32 -54 -19 -65 -38 -110 -71 -162 -13
-22 -29 -47 -35 -57 -7 -12 -6 -18 6 -22 12 -4 15 -2 10 9 -3 8 -1 15 5 15 5
0 13 -9 17 -21 7 -19 10 -17 27 20 10 23 22 41 27 41 11 0 -30 -76 -50 -92
-10 -9 -12 -8 -10 1 2 8 -9 14 -26 17 -22 2 -36 -4 -55 -25 -45 -48 -139 -109
-212 -136 -61 -24 -69 -30 -63 -47 4 -14 2 -18 -5 -14 -6 4 -11 14 -11 22 0
12 -5 13 -22 7 -13 -4 -69 -8 -125 -8 l-102 0 6 -24 c4 -17 2 -22 -6 -17 -6 4
-11 15 -11 25 0 11 -13 20 -41 28 -33 9 -39 8 -35 -3 3 -7 1 -16 -3 -19 -5 -2
-11 3 -13 13 -3 11 -26 26 -54 37 -27 10 -52 23 -56 29 -5 7 -8 5 -8 -6 0 -9
-5 -20 -11 -24 -9 -5 -10 1 -5 22 7 28 7 28 -8 9 -15 -19 -15 -19 -16 8 0 15
-4 27 -9 27 -5 0 -23 11 -39 25 -27 23 -31 24 -35 8 -4 -14 -5 -13 -6 5 0 12
-4 22 -8 22 -5 0 -16 14 -26 31 -15 27 -20 29 -33 18 -13 -11 -14 -9 -9 13 4
15 2 29 -5 33 -6 4 -16 18 -21 32 -8 22 -11 24 -27 12 -16 -13 -16 -13 -2 5
11 14 12 20 3 23 -7 2 -9 11 -6 19 3 8 0 14 -6 14 -6 0 -11 11 -11 25 0 14 -4
25 -10 25 -5 0 -10 11 -10 25 0 23 -2 24 -20 15 -17 -9 -20 -8 -20 9 0 23 16
37 22 19 3 -7 3 37 2 97 -3 102 1 128 31 231 4 12 2 25 -4 28 -10 6 -16 -13
-12 -36 0 -5 -3 -8 -9 -8 -5 0 -10 9 -10 20 0 11 -6 20 -12 20 -9 1 -8 4 2 13
19 15 40 61 40 87 0 22 38 28 57 9 8 -8 14 -5 23 11 10 18 9 24 -7 35 -35 26
-56 12 -94 -63 -45 -88 -69 -182 -64 -242 3 -36 3 -39 -4 -15 -5 21 -7 3 -7
-58 1 -52 4 -79 8 -65 4 13 6 4 3 -22 -3 -25 1 -67 9 -95 21 -75 66 -166 78
-159 7 4 8 2 4 -4 -11 -18 45 -92 128 -170 138 -128 325 -204 502 -203 84 0
131 10 240 49 192 69 336 225 415 452 19 55 23 86 23 195 0 121 -2 137 -34
229 -69 202 -248 371 -463 437 -75 23 -97 20 -98 -13 -1 -22 -1 -22 -9 2 -5
17 -8 19 -9 8 -1 -10 -5 -18 -11 -18 -5 0 -10 8 -11 18 0 14 -2 14 -9 -3 -7
-17 -9 -17 -9 -2 -1 19 -21 24 -21 5 0 -7 -5 -5 -11 5 -5 9 -20 17 -32 16 -12
0 -16 -3 -9 -6 19 -7 14 -19 -8 -20 -11 -1 -18 2 -15 8 8 11 -19 39 -37 39
-11 0 -11 -2 0 -9z m22 -37 c0 -8 -4 -12 -10 -9 -5 3 -10 10 -10 16 0 5 5 9
10 9 6 0 10 -7 10 -16z m260 -5 c10 -5 11 -8 3 -9 -7 0 -13 -6 -13 -14 0 -9
-7 -12 -19 -9 -12 3 -17 11 -14 19 3 8 -4 18 -18 24 -20 8 -18 9 11 4 19 -4
42 -10 50 -15z m-60 -9 c0 -5 -5 -10 -11 -10 -5 0 -7 5 -4 10 3 6 8 10 11 10
2 0 4 -4 4 -10z m104 -6 c24 -9 2 -44 -24 -37 -23 6 -25 14 -8 31 14 14 12 14
32 6z m82 -40 c24 -14 44 -28 44 -31 0 -2 -5 -1 -11 3 -6 3 -16 0 -21 -7 -8
-11 -9 -10 -4 4 6 19 -10 24 -17 5 -3 -8 -6 -5 -6 6 -1 15 -4 16 -16 6 -13
-11 -14 -10 -9 4 3 9 1 16 -5 16 -6 0 -11 -5 -11 -12 0 -6 -3 -9 -6 -5 -7 7 2
37 11 37 4 0 26 -12 51 -26z m44 -48 c0 -3 -4 -8 -10 -11 -5 -3 -10 -1 -10 4
0 6 5 11 10 11 6 0 10 -2 10 -4z m32 -48 c-7 -7 -12 -8 -12 -2 0 6 3 14 7 17
3 4 9 5 12 2 2 -3 -1 -11 -7 -17z m-942 -128 c0 -5 -2 -10 -4 -10 -3 0 -8 5
-11 10 -3 6 -1 10 4 10 6 0 11 -4 11 -10z m-113 -290 c1 -11 -2 -20 -7 -20
-10 0 -20 26 -13 34 12 11 19 6 20 -14z m0 -36 c-3 -3 -12 -4 -19 -1 -8 3 -5
6 6 6 11 1 17 -2 13 -5z m3 -74 c0 -5 -5 -10 -11 -10 -5 0 -7 5 -4 10 3 6 8
10 11 10 2 0 4 -4 4 -10z m1300 -2 c0 -9 4 -8 10 2 7 11 9 1 8 -35 -1 -34 -2
-40 -5 -19 -3 25 -8 31 -23 27 -15 -4 -18 -1 -13 16 6 23 23 29 23 9z m11
-113 c7 -26 6 -28 -5 -12 -8 10 -20 15 -30 11 -9 -3 -16 -1 -16 6 0 6 5 8 10
5 6 -3 10 -2 10 4 0 5 -6 12 -12 15 -7 3 -2 4 11 3 18 -1 27 -10 32 -32z
m-1291 -18 c0 -2 -10 -12 -21 -23 -22 -19 -22 -19 -8 4 12 19 29 30 29 19z
m1250 -7 c0 -5 -4 -10 -10 -10 -5 0 -10 5 -10 10 0 6 5 10 10 10 6 0 10 -4 10
-10z m9 -64 c-23 -62 -35 -71 -19 -15 8 28 7 36 -7 47 -16 11 -15 12 3 13 10
1 22 1 27 0 4 0 7 4 7 11 0 6 2 9 5 6 3 -3 -4 -31 -16 -62z m-1239 14 c0 -5
-5 -10 -11 -10 -5 0 -7 5 -4 10 3 6 8 10 11 10 2 0 4 -4 4 -10z m1215 0 c3 -5
2 -10 -4 -10 -5 0 -13 5 -16 10 -3 6 -2 10 4 10 5 0 13 -4 16 -10z m-1205 -30
c0 -5 -5 -10 -11 -10 -5 0 -7 5 -4 10 3 6 8 10 11 10 2 0 4 -4 4 -10z m1193
-10 c-3 -11 -11 -20 -19 -20 -8 0 -11 -6 -7 -17 4 -14 3 -15 -6 -7 -9 8 -9 17
0 37 14 32 40 37 32 7z m-1153 -54 c0 -3 -4 -8 -10 -11 -5 -3 -10 -1 -10 4 0
6 5 11 10 11 6 0 10 -2 10 -4z m1115 -6 c3 -5 2 -10 -4 -10 -5 0 -13 5 -16 10
-3 6 -2 10 4 10 5 0 13 -4 16 -10z m-1110 -30 c-3 -5 -11 -10 -16 -10 -6 0 -7
5 -4 10 3 6 11 10 16 10 6 0 7 -4 4 -10z m1050 -68 c-3 -3 -11 0 -18 7 -9 10
-8 11 6 5 10 -3 15 -9 12 -12z m-983 -14 c-7 -7 -12 -8 -12 -2 0 6 3 14 7 17
3 4 9 5 12 2 2 -3 -1 -11 -7 -17z m963 2 c3 -5 -1 -10 -10 -10 -9 0 -13 -4
-10 -10 7 -11 -8 -14 -18 -4 -6 7 13 33 25 34 4 0 10 -4 13 -10z m45 -4 c0 -2
-8 -10 -17 -17 -16 -13 -17 -12 -4 4 13 16 21 21 21 13z m-85 -36 c3 -5 0 -10
-7 -10 -8 0 -20 -9 -28 -19 -7 -11 -17 -18 -22 -15 -8 5 31 52 44 53 4 1 10
-3 13 -9z m-855 -10 c0 -5 -5 -10 -11 -10 -5 0 -7 5 -4 10 3 6 8 10 11 10 2 0
4 -4 4 -10z m30 -14 c0 -3 -4 -8 -10 -11 -5 -3 -10 -1 -10 4 0 6 5 11 10 11 6
0 10 -2 10 -4z m813 -31 c-10 -13 -24 -25 -32 -25 -8 0 -11 -6 -7 -16 4 -10 1
-14 -6 -11 -7 2 -23 0 -35 -4 -16 -6 -21 -5 -17 5 3 7 -2 16 -10 19 -9 4 -16
1 -16 -5 0 -6 -3 -8 -7 -5 -9 10 35 49 47 42 6 -3 10 -1 10 5 0 6 4 8 10 5 15
-9 -12 -34 -30 -27 -11 4 -12 2 -4 -7 7 -8 21 -6 51 9 23 11 45 24 48 30 3 5
8 10 11 10 3 0 -3 -11 -13 -25z m-793 5 c0 -5 -5 -10 -11 -10 -5 0 -7 5 -4 10
3 6 8 10 11 10 2 0 4 -4 4 -10z m74 -45 c-4 -8 -8 -15 -10 -15 -2 0 -4 7 -4
15 0 8 4 15 10 15 5 0 7 -7 4 -15z m36 1 c0 -3 -4 -8 -10 -11 -5 -3 -10 -1
-10 4 0 6 5 11 10 11 6 0 10 -2 10 -4z m540 -6 c0 -5 -4 -10 -10 -10 -5 0 -10
5 -10 10 0 6 5 10 10 10 6 0 10 -4 10 -10z m-523 -22 c-3 -8 -6 -5 -6 6 -1 11
2 17 5 13 3 -3 4 -12 1 -19z m496 7 c4 -8 2 -17 -2 -20 -5 -2 -11 4 -14 15 -6
23 8 27 16 5z m-53 -16 c0 -5 -4 -9 -10 -9 -5 0 -10 7 -10 16 0 8 5 12 10 9 6
-3 10 -10 10 -16z m25 11 c3 -5 1 -10 -4 -10 -6 0 -11 5 -11 10 0 6 2 10 4 10
3 0 8 -4 11 -10z m-435 -4 c0 -3 -4 -8 -10 -11 -5 -3 -10 -1 -10 4 0 6 5 11
10 11 6 0 10 -2 10 -4z m60 -16 c0 -5 -5 -10 -11 -10 -5 0 -7 5 -4 10 3 6 8
10 11 10 2 0 4 -4 4 -10z m30 -5 c0 -8 -4 -15 -10 -15 -5 0 -10 7 -10 15 0 8
5 15 10 15 6 0 10 -7 10 -15z m250 0 c0 15 3 16 12 7 10 -10 10 -15 -1 -21
-19 -12 -41 -3 -41 18 1 14 3 13 15 -3 15 -19 15 -19 15 -1z m-190 -16 c0 -5
-4 -9 -10 -9 -5 0 -10 7 -10 16 0 8 5 12 10 9 6 -3 10 -10 10 -16z m17 -1 c-3
-8 -6 -5 -6 6 -1 11 2 17 5 13 3 -3 4 -12 1 -19z m36 7 c4 -8 2 -17 -3 -20 -6
-4 -10 3 -10 14 0 25 6 27 13 6z m24 -7 c-3 -8 -6 -5 -6 6 -1 11 2 17 5 13 3
-3 4 -12 1 -19z m43 1 c0 -5 -4 -9 -10 -9 -5 0 -10 7 -10 16 0 8 5 12 10 9 6
-3 10 -10 10 -16z m30 0 c0 -5 -4 -9 -10 -9 -5 0 -10 7 -10 16 0 8 5 12 10 9
6 -3 10 -10 10 -16z"/>
<path d="M918 1533 c7 -3 16 -2 19 1 4 3 -2 6 -13 5 -11 0 -14 -3 -6 -6z"/>
<path d="M978 1523 c7 -3 16 -2 19 1 4 3 -2 6 -13 5 -11 0 -14 -3 -6 -6z"/>
<path d="M371 1502 c-6 -12 -21 -22 -33 -22 -20 0 -20 -1 -5 -18 10 -10 17
-29 17 -41 0 -18 3 -20 17 -12 11 6 24 6 35 0 15 -8 18 -6 18 15 0 14 5 28 10
31 16 10 11 25 -8 25 -11 0 -23 10 -29 22 l-10 23 -12 -23z"/>
<path d="M1376 1502 c-4 -13 -15 -22 -27 -22 -20 0 -26 -15 -9 -25 6 -3 10
-17 10 -31 0 -22 3 -23 20 -14 14 8 26 8 40 0 19 -10 20 -9 14 14 -4 19 -2 28
10 32 22 8 20 24 -3 24 -10 0 -25 10 -33 22 l-15 23 -7 -23z"/>
<path d="M524 1416 c-6 -6 -8 -18 -6 -26 5 -13 3 -13 -13 0 -17 14 -17 13 -10
-9 4 -15 4 -21 -3 -17 -6 3 -13 0 -15 -6 -3 -7 -3 2 0 20 4 22 2 32 -7 32 -15
0 -160 -140 -160 -154 0 -6 13 3 28 19 15 17 24 26 20 21 -14 -17 -9 -26 15
-27 12 0 16 -3 10 -6 -13 -5 -19 -33 -7 -33 3 0 29 25 57 56 29 31 62 60 73
64 14 6 23 20 27 42 6 39 5 40 -9 24z m-102 -67 c-24 -22 -46 -39 -48 -36 -5
5 75 77 85 77 3 0 -14 -18 -37 -41z m43 -9 c3 -5 2 -10 -4 -10 -5 0 -13 5 -16
10 -3 6 -2 10 4 10 5 0 13 -4 16 -10z m-33 -18 c-7 -2 -10 -8 -6 -13 3 -5 0
-9 -5 -9 -13 0 -13 3 -5 24 3 9 11 13 17 9 8 -5 7 -8 -1 -11z m-27 -32 c3 -5
1 -10 -4 -10 -6 0 -11 5 -11 10 0 6 2 10 4 10 3 0 8 -4 11 -10z"/>
<path d="M573 1416 c-13 -7 -20 -15 -17 -18 7 -8 64 14 64 24 0 11 -21 8 -47
-6z"/>
<path d="M276 1397 c-10 -7 -19 -27 -20 -43 -1 -16 -5 -35 -10 -43 -17 -27 42
-43 64 -17 9 12 7 17 -9 28 l-20 12 21 23 c11 12 18 29 15 37 -8 19 -18 20
-41 3z"/>
<path d="M1453 1395 c-7 -20 24 -55 49 -55 24 0 23 25 -2 50 -24 24 -39 25
-47 5z"/>
<path d="M200 1379 c-14 -25 2 -73 23 -67 18 7 21 63 3 77 -12 10 -17 8 -26
-10z"/>
<path d="M1542 1388 c-15 -15 -16 -65 0 -74 16 -10 39 26 32 50 -9 31 -18 38
-32 24z"/>
<path d="M1327 1333 c-4 -3 -7 -11 -7 -17 0 -6 5 -5 12 2 6 6 9 14 7 17 -3 3
-9 2 -12 -2z"/>
<path d="M157 1323 c-12 -12 -7 -50 8 -63 27 -22 45 12 29 54 -6 16 -26 21
-37 9z"/>
<path d="M700 1320 c-14 -5 63 -8 180 -8 117 0 194 3 180 8 -14 4 -95 8 -180
8 -85 0 -166 -4 -180 -8z"/>
<path d="M1463 1323 c-18 -7 -16 -30 3 -37 42 -16 76 2 54 29 -12 15 -34 18
-57 8z"/>
<path d="M1581 1316 c-12 -15 -5 -66 9 -66 4 0 14 10 23 23 12 19 12 26 2 40
-15 21 -19 21 -34 3z"/>
<path d="M218 1269 c-31 -17 -22 -39 16 -39 41 0 56 18 31 37 -22 15 -25 16
-47 2z"/>
<path d="M1508 1273 c-27 -6 -22 -32 8 -43 20 -8 24 -13 15 -24 -8 -10 -8 -16
1 -23 21 -16 44 -22 58 -13 18 11 5 41 -20 47 -15 4 -18 9 -10 18 15 19 -21
45 -52 38z"/>
<path d="M115 1250 c-8 -24 20 -74 35 -65 13 8 13 41 0 66 -14 25 -27 24 -35
-1z"/>
<path d="M1621 1256 c-14 -17 -11 -71 4 -71 5 0 16 12 25 27 13 25 13 29 -1
43 -14 14 -17 14 -28 1z"/>
<path d="M345 1250 c3 -5 8 -10 11 -10 2 0 4 5 4 10 0 6 -5 10 -11 10 -5 0 -7
-4 -4 -10z"/>
<path d="M457 1242 c-13 -14 -17 -39 -17 -105 0 -96 16 -127 65 -127 14 0 25
-4 25 -10 0 -5 9 -10 20 -10 21 0 27 15 10 25 -7 4 -5 14 5 28 30 42 17 185
-19 209 -21 14 -73 8 -89 -10z m74 -12 c16 -9 19 -21 18 -93 0 -45 -3 -76 -6
-69 -8 21 -35 14 -28 -8 5 -15 2 -20 -12 -20 -34 0 -43 21 -43 96 0 64 3 75
22 88 27 19 24 19 49 6z"/>
<path d="M598 1248 c8 -8 12 -46 12 -105 0 -104 15 -133 68 -133 54 0 70 32
74 148 3 96 2 102 -17 102 -19 0 -20 -6 -17 -101 4 -108 0 -119 -45 -119 -12
0 -27 9 -33 19 -14 28 -13 174 2 189 9 9 4 12 -22 12 -26 0 -31 -3 -22 -12z"/>
<path d="M955 1135 l0 -125 69 0 c60 0 67 2 56 15 -8 9 -30 15 -56 15 l-44 0
0 98 c0 63 4 102 12 110 9 9 7 12 -12 12 l-25 0 0 -125z"/>
<path d="M1108 1248 c16 -16 16 -210 0 -226 -9 -9 -7 -12 13 -12 l24 0 0 125
0 125 -24 0 c-20 0 -22 -3 -13 -12z"/>
<path d="M1190 1238 c-11 -12 -20 -31 -20 -43 0 -31 28 -65 54 -65 13 0 34 -8
47 -19 21 -16 22 -22 11 -45 -10 -22 -18 -26 -51 -26 -22 0 -44 -6 -51 -15
-21 -26 84 -21 110 5 39 39 16 120 -34 120 -31 0 -56 20 -56 45 0 28 26 45 69
45 16 0 33 5 36 10 4 6 -13 10 -44 10 -39 0 -55 -5 -71 -22z"/>
<path d="M830 1163 c-12 -48 -28 -103 -36 -120 -12 -32 -12 -33 10 -33 17 0
22 6 22 23 -1 19 4 22 34 22 30 0 35 -3 34 -22 0 -16 5 -23 18 -23 15 0 17 4
10 18 -5 9 -19 60 -32 112 -12 52 -26 99 -30 103 -4 4 -17 -32 -30 -80z m49
-60 c1 -17 -5 -23 -19 -23 -23 0 -26 24 -9 67 l12 28 7 -25 c5 -14 8 -35 9
-47z"/>
<path d="M191 1209 c-17 -7 -22 -15 -18 -29 3 -14 -1 -24 -15 -31 -15 -8 -18
-17 -14 -35 5 -17 2 -26 -9 -30 -8 -4 -15 -15 -15 -25 0 -24 32 -25 54 -3 19
19 20 31 4 36 -8 3 -4 9 10 17 24 13 29 37 10 44 -7 3 0 10 15 16 18 7 27 17
25 28 -4 21 -17 24 -47 12z"/>
<path d="M87 1193 c-11 -11 -8 -48 5 -61 21 -21 38 -14 38 16 0 37 -25 63 -43
45z"/>
<path d="M1653 1188 c-17 -22 -22 -44 -12 -59 14 -22 44 3 44 36 0 31 -16 43
-32 23z"/>
<path d="M290 1175 c0 -8 5 -15 10 -15 6 0 10 -4 10 -10 0 -5 -8 -10 -17 -10
-14 0 -15 -2 -4 -9 11 -7 10 -10 -4 -18 -15 -9 -16 -11 -1 -16 12 -5 20 3 31
30 17 40 20 66 5 43 -9 -13 -14 -7 -11 13 0 4 -3 7 -9 7 -5 0 -10 -7 -10 -15z"/>
<path d="M1573 1153 c-20 -7 -15 -31 9 -44 14 -8 18 -14 10 -17 -19 -6 -14
-29 10 -46 12 -9 17 -16 10 -16 -20 0 -14 -28 10 -44 46 -33 68 -5 26 34 -12
11 -16 20 -10 20 19 0 14 29 -7 42 -14 8 -17 16 -10 24 20 24 -15 58 -48 47z"/>
<path d="M54 1115 c-7 -16 20 -65 35 -65 18 0 21 33 6 56 -18 28 -33 31 -41 9z"/>
<path d="M1670 1111 c-15 -29 -12 -61 5 -61 19 0 49 46 41 65 -8 21 -33 19
-46 -4z"/>
<path d="M37 1053 c-20 -19 11 -73 41 -73 17 0 15 32 -4 58 -16 23 -26 27 -37
15z"/>
<path d="M1696 1038 c-20 -28 -21 -58 -1 -58 19 0 49 46 41 65 -8 21 -22 19
-40 -7z"/>
<path d="M1505 1030 c-3 -5 -1 -10 4 -10 6 0 11 5 11 10 0 6 -2 10 -4 10 -3 0
-8 -4 -11 -10z"/>
<path d="M118 1019 c-23 -13 -24 -49 -2 -49 13 0 11 -4 -7 -18 -27 -23 -21
-53 11 -45 27 7 45 40 31 57 -8 10 -7 17 4 26 35 29 4 53 -37 29z"/>
<path d="M20 962 c0 -28 25 -56 44 -49 20 8 21 31 0 51 -21 21 -44 20 -44 -2z"/>
<path d="M597 865 c1 -63 5 -115 8 -115 3 0 11 0 18 0 9 0 12 28 10 112 -1
101 -3 113 -20 116 -17 3 -18 -6 -16 -113z"/>
<path d="M650 970 c0 -6 14 -13 31 -17 l30 -6 -3 -98 c-2 -83 -1 -99 12 -99
13 0 14 16 12 99 -3 96 -3 100 19 103 12 2 24 9 27 16 3 9 -14 12 -62 12 -38
0 -66 -4 -66 -10z"/>
<path d="M955 863 l0 -118 53 3 c61 4 71 22 11 22 l-41 0 4 105 c2 88 1 105
-12 105 -12 0 -15 -20 -15 -117z"/>
<path d="M1085 865 c0 -108 1 -115 20 -115 19 0 20 7 20 115 0 108 -1 115 -20
115 -19 0 -20 -7 -20 -115z"/>
<path d="M1164 955 c-24 -24 -26 -31 -22 -100 2 -49 9 -80 18 -89 20 -19 92
-25 98 -8 2 8 -8 12 -31 12 -53 0 -70 26 -65 99 2 34 7 64 11 68 4 4 26 9 50
12 52 7 55 25 5 29 -30 3 -43 -2 -64 -23z"/>
<path d="M1700 961 c-16 -31 -12 -51 10 -51 20 0 40 27 40 54 0 23 -37 20 -50
-3z"/>
<path d="M1613 953 c-4 -10 2 -23 16 -35 18 -14 20 -18 7 -18 -19 0 -22 -33
-3 -48 19 -15 95 -13 112 4 20 20 19 54 0 54 -9 0 -26 -11 -38 -24 -22 -24
-23 -24 -35 -5 -7 11 -8 19 -2 19 19 0 10 39 -12 54 -28 20 -37 20 -45 -1z"/>
<path d="M833 856 c-27 -95 -28 -106 -12 -106 10 0 16 7 15 18 -1 12 8 18 32
20 27 3 32 0 32 -17 0 -12 7 -21 15 -21 12 0 13 5 7 18 -5 9 -17 51 -27 92
-10 41 -21 81 -25 88 -3 8 -20 -33 -37 -92z m52 -13 c6 -29 4 -33 -14 -33 -23
0 -24 3 -15 49 8 37 19 30 29 -16z"/>
<path d="M1335 924 c-3 -20 -15 -65 -26 -100 -21 -68 -21 -78 -1 -80 7 -1 12
8 12 22 0 20 5 24 30 24 27 0 35 -8 31 -32 0 -5 5 -8 13 -8 10 0 8 22 -12 105
-15 58 -29 105 -33 105 -4 0 -10 -16 -14 -36z m34 -96 c1 -12 -6 -18 -19 -18
-23 0 -24 5 -8 51 12 34 12 34 19 9 4 -14 7 -33 8 -42z"/>
<path d="M14 896 c-8 -22 14 -56 36 -56 26 0 26 31 2 53 -23 21 -31 21 -38 3z"/>
<path d="M100 874 c-11 -20 -12 -27 -2 -33 10 -6 10 -13 1 -34 -14 -32 -8 -41
20 -32 23 7 40 53 23 64 -7 4 -8 12 -2 21 15 24 12 40 -8 40 -10 0 -25 -12
-32 -26z"/>
<path d="M7 823 c-4 -3 -7 -10 -7 -15 0 -14 39 -48 55 -48 23 0 18 37 -7 54
-25 18 -32 19 -41 9z"/>
<path d="M1620 819 c0 -6 5 -19 10 -30 8 -13 7 -19 0 -19 -17 0 -7 -52 12 -64
27 -17 40 4 23 37 -12 23 -12 27 1 27 17 0 19 31 2 48 -15 15 -48 16 -48 1z"/>
<path d="M1704 805 c-15 -23 -12 -45 7 -45 14 0 49 38 49 55 0 24 -38 17 -56
-10z"/>
<path d="M106 748 c-21 -30 -20 -48 2 -48 25 0 42 19 42 47 0 29 -24 30 -44 1z"/>
<path d="M16 753 c-14 -15 -4 -44 19 -55 29 -13 49 -1 40 24 -7 17 -50 40 -59
31z"/>
<path d="M1707 742 c-21 -23 -22 -52 -2 -52 20 0 57 38 52 53 -6 20 -32 19
-50 -1z"/>
<path d="M655 720 c-12 -5 83 -9 235 -9 168 -1 250 3 240 9 -19 12 -447 12
-475 0z"/>
<path d="M1607 695 c-8 -20 1 -43 24 -55 27 -15 31 -12 27 16 -4 34 -42 63
-51 39z"/>
<path d="M118 678 c-16 -25 -13 -48 5 -48 17 1 49 48 42 60 -10 17 -32 11 -47
-12z"/>
<path d="M30 662 c0 -25 19 -42 47 -42 28 0 30 21 5 43 -25 22 -52 22 -52 -1z"/>
<path d="M1687 662 c-24 -26 -21 -42 7 -42 25 0 60 36 50 52 -9 14 -40 9 -57
-10z"/>
<path d="M845 639 c-16 -5 -43 -11 -59 -13 -64 -8 -69 -81 -6 -81 22 0 36 -6
44 -20 21 -39 68 -95 78 -95 5 0 23 -14 40 -32 25 -27 29 -37 23 -67 l-6 -36
21 25 c11 14 18 33 16 42 -5 23 11 33 29 18 12 -10 15 -9 15 3 0 9 -10 22 -22
28 -13 6 -31 20 -40 29 -9 10 -21 20 -25 21 -5 2 -23 25 -40 50 -31 47 -30 79
2 79 21 0 18 16 -7 40 -24 22 -21 22 -63 9z"/>
<path d="M143 628 c-17 -22 -22 -44 -12 -59 8 -11 13 -10 30 10 21 25 22 52 3
58 -6 2 -15 -2 -21 -9z"/>
<path d="M1590 617 c0 -22 27 -57 43 -57 12 0 8 55 -5 68 -19 19 -38 14 -38
-11z"/>
<path d="M45 599 c-9 -14 24 -49 46 -49 27 0 33 19 13 41 -19 21 -49 25 -59 8z"/>
<path d="M1667 592 c-24 -26 -21 -42 7 -42 25 0 60 36 50 52 -9 14 -40 9 -57
-10z"/>
<path d="M166 564 c-30 -30 -12 -80 19 -54 17 14 20 56 6 65 -5 3 -17 -2 -25
-11z"/>
<path d="M1577 573 c-12 -12 -7 -50 8 -63 17 -14 35 -5 35 19 0 20 -33 54 -43
44z"/>
<path d="M70 520 c0 -22 34 -44 56 -36 20 8 17 34 -5 46 -31 16 -51 12 -51
-10z"/>
<path d="M1639 521 c-19 -16 -22 -22 -12 -32 19 -19 67 1 71 29 4 28 -26 30
-59 3z"/>
<path d="M190 501 c-15 -29 -12 -61 5 -61 19 0 40 43 32 64 -9 22 -24 20 -37
-3z"/>
<path d="M1547 513 c-12 -12 -7 -50 8 -63 17 -14 35 -5 35 19 0 20 -33 54 -43
44z"/>
<path d="M597 488 c-20 -11 -22 -39 -5 -56 18 -18 36 -15 48 7 19 36 -9 68
-43 49z"/>
<path d="M1133 493 c-18 -7 -16 -60 2 -67 37 -14 62 33 33 62 -13 13 -16 13
-35 5z"/>
<path d="M100 450 c0 -23 33 -40 62 -32 22 5 23 16 2 36 -23 24 -64 21 -64 -4z"/>
<path d="M1608 459 c-24 -13 -23 -35 1 -42 23 -6 61 18 61 39 0 16 -36 18 -62
3z"/>
<path d="M220 441 c-12 -24 -12 -32 -1 -50 14 -22 41 5 41 40 0 34 -24 39 -40
10z"/>
<path d="M1513 445 c-13 -22 3 -65 22 -65 21 0 24 39 6 62 -17 21 -18 21 -28
3z"/>
<path d="M769 433 c0 -5 -2 -23 -4 -41 -2 -26 1 -32 14 -30 22 4 29 78 7 78
-9 0 -16 -3 -17 -7z"/>
<path d="M142 398 c-15 -15 12 -48 40 -48 27 0 35 30 13 46 -23 17 -37 18 -53
2z"/>
<path d="M265 386 c-13 -20 -14 -29 -5 -46 9 -17 14 -19 26 -9 16 13 19 65 4
74 -5 3 -16 -5 -25 -19z"/>
<path d="M1476 394 c-10 -26 -7 -51 8 -63 12 -10 17 -8 26 9 9 17 8 26 -5 46
-18 28 -21 29 -29 8z"/>
<path d="M1572 394 c-18 -13 -21 -19 -11 -30 15 -18 29 -18 57 2 18 13 21 19
11 30 -15 18 -29 18 -57 -2z"/>
<path d="M1431 337 c-12 -32 2 -71 22 -64 18 6 20 49 3 72 -14 20 -15 19 -25
-8z"/>
<path d="M190 338 l-25 -9 24 -20 c13 -10 28 -19 35 -19 21 0 39 18 33 33 -7
19 -37 26 -67 15z"/>
<path d="M304 337 c-9 -25 0 -62 16 -62 10 0 15 10 15 34 0 36 -21 54 -31 28z"/>
<path d="M1533 338 c-30 -15 -29 -36 2 -44 41 -10 77 35 39 50 -9 3 -16 6 -17
5 -1 0 -12 -5 -24 -11z"/>
<path d="M875 321 c-11 -10 -3 -20 30 -40 27 -15 35 -17 35 -6 0 7 3 20 6 28
4 11 -4 16 -31 19 -19 2 -38 2 -40 -1z"/>
<path d="M360 264 c-8 -24 -22 -40 -46 -51 -39 -19 -42 -28 -15 -42 20 -11 37
2 60 47 6 12 18 22 26 22 9 0 1 -19 -26 -57 l-39 -57 27 -23 c16 -12 62 -41
105 -63 68 -36 83 -40 148 -40 l71 0 -3 56 -3 56 -54 19 c-73 25 -208 103
-187 107 21 4 20 11 -1 29 -45 35 -51 35 -63 -3z"/>
<path d="M1362 277 c-36 -25 -39 -34 -14 -39 18 -4 -85 -67 -158 -95 l-40 -16
0 -64 0 -63 55 0 c57 0 128 29 217 87 43 29 45 38 17 73 -45 57 -59 83 -22 42
38 -42 40 -42 57 -23 17 18 16 19 -21 37 -26 13 -39 27 -41 44 -5 38 -15 42
-50 17z"/>
<path d="M233 279 c-29 -29 29 -54 67 -29 13 9 12 12 -4 25 -24 18 -48 19 -63
4z"/>
<path d="M1470 275 c-16 -20 -4 -35 29 -35 39 0 59 25 32 39 -27 15 -46 14
-61 -4z"/>
</g>
</svg>
